<?xml version="1.0" encoding="utf-8"?>
<!-- Generator: Adobe Illustrator 26.2.1, SVG Export Plug-In . SVG Version: 6.00 Build 0)  -->
<svg version="1.1" id="Layer_1" xmlns="http://www.w3.org/2000/svg" xmlns:xlink="http://www.w3.org/1999/xlink" x="0px" y="0px"
	 viewBox="0 0 595.28 280.63" style="enable-background:new 0 0 595.28 280.63;" xml:space="preserve">
<style type="text/css">
	.st0{fill:#B9BB16;}
	.st1{fill:#006580;}
</style>
<g>
	<g>
		<path class="st0" d="M243.2,95.14l-16.84,0c-0.02,0.09-0.05,0.17-0.06,0.25c-0.42,3.09-3.68,18.73-25.94,21.78l0,10.03l0,1.15
			l20.62,0l0,52.84l22.22,0l0-53.99L243.2,95.14z"/>
	</g>
	<path class="st1" d="M191.26,110.95c0,0,22.09-0.83,25.97-15.82l-25.93,0l0-5.16c0-7.16,2.66-9.82,8.99-9.82
		c3,0,5.83,0.16,8.66,0.5l0-17.65c-4-0.17-8.33-0.67-12.49-0.66c-19.31,0-28.81,10.99-28.81,26.14l0,6.66l-14.15,0l0,15.82l14.15,0
		l0,70.26l23.64,0l0-70L191.26,110.95z"/>
	<path class="st1" d="M251.73,95.13l22.48,0l0,15.98l0.33,0c4.33-10.82,15.98-18.32,27.47-18.32c1.66,0,3.66,0.34,5.16,0.83l0,21.98
		c-2.16-0.5-5.66-0.83-8.49-0.83c-17.32,0-23.31,12.48-23.31,27.64l0,38.79l-23.64,0L251.73,95.13z"/>
	<path class="st1" d="M330.32,153.24c0.17,10.32,8.82,14.48,18.15,14.48c6.82,0,15.48-2.67,15.49-10.99c0-7.16-9.83-9.66-26.8-13.32
		c-13.65-3-27.31-7.83-27.31-22.98c0-21.98,18.98-27.64,37.46-27.64c18.81,0,36.13,6.33,37.96,27.47l-22.47,0
		c-0.67-9.16-7.66-11.66-16.15-11.66c-5.33,0-13.15,1-13.16,7.99c0,8.49,13.32,9.65,26.81,12.82c13.82,3.16,27.31,8.16,27.3,24.14
		c0,22.64-19.65,29.97-39.29,29.97c-19.98,0-39.46-7.49-40.46-30.3L330.32,153.24z"/>
	<path class="st1" d="M423.55,95.13l17.31,0l0,15.82l-17.32,0l0,42.63c0,7.99,2,9.99,9.99,9.98c2.5,0,4.83-0.17,7.33-0.66l0,18.48
		c-3.99,0.66-9.16,0.83-13.82,0.83c-14.49,0-27.14-3.33-27.14-20.48l0-50.78l-14.32,0l0-15.82l14.32,0l0-25.81l23.64,0L423.55,95.13
		z"/>
	<g>
		<path class="st1" d="M231.51,200.47c-0.96,0-1.76,0.22-2.41,0.66c-0.65,0.44-1.18,1-1.59,1.69c-0.41,0.69-0.7,1.45-0.87,2.29
			c-0.17,0.83-0.25,1.66-0.25,2.47c0,0.79,0.08,1.6,0.25,2.41c0.17,0.82,0.44,1.56,0.83,2.22c0.38,0.66,0.9,1.21,1.55,1.63
			c0.65,0.42,1.44,0.64,2.37,0.64c1.44,0,2.55-0.4,3.32-1.21c0.78-0.81,1.26-1.89,1.46-3.24h5.8c-0.39,2.91-1.52,5.12-3.38,6.65
			c-1.86,1.52-4.25,2.29-7.16,2.29c-1.64,0-3.14-0.27-4.51-0.82c-1.37-0.55-2.53-1.32-3.49-2.31c-0.96-0.99-1.71-2.17-2.24-3.54
			c-0.53-1.37-0.81-2.87-0.81-4.51c0-1.69,0.25-3.27,0.74-4.72c0.49-1.45,1.22-2.71,2.18-3.77c0.96-1.06,2.13-1.89,3.51-2.48
			s2.97-0.89,4.74-0.89c1.3,0,2.55,0.17,3.75,0.51c1.2,0.34,2.27,0.85,3.22,1.54c0.95,0.69,1.72,1.55,2.31,2.58
			c0.59,1.03,0.93,2.25,1.01,3.66h-5.88C235.56,201.73,234.08,200.47,231.51,200.47z"/>
		<path class="st1" d="M249.37,196.53v4.06h0.09c0.28-0.68,0.66-1.3,1.14-1.88c0.48-0.58,1.03-1.07,1.65-1.48
			c0.62-0.41,1.29-0.73,1.99-0.95c0.71-0.23,1.44-0.34,2.2-0.34c0.39,0,0.83,0.07,1.31,0.21v5.59c-0.28-0.06-0.62-0.11-1.01-0.15
			c-0.4-0.04-0.78-0.07-1.15-0.07c-1.1,0-2.03,0.18-2.79,0.55c-0.76,0.36-1.38,0.87-1.84,1.5c-0.47,0.63-0.8,1.38-1,2.22
			c-0.2,0.85-0.3,1.76-0.3,2.75v9.86h-6.01v-21.89H249.37z"/>
		<path class="st1" d="M264.95,213.17c0.9,0.87,2.2,1.31,3.89,1.31c1.21,0,2.26-0.3,3.13-0.91c0.87-0.61,1.41-1.25,1.61-1.93h5.29
			c-0.85,2.62-2.15,4.5-3.89,5.63c-1.75,1.13-3.87,1.69-6.35,1.69c-1.72,0-3.27-0.27-4.66-0.82c-1.38-0.55-2.55-1.33-3.51-2.35
			c-0.96-1.01-1.7-2.23-2.22-3.64c-0.52-1.41-0.78-2.96-0.78-4.66c0-1.64,0.27-3.16,0.81-4.57c0.53-1.41,1.3-2.63,2.29-3.66
			c0.99-1.03,2.16-1.84,3.53-2.43c1.37-0.59,2.89-0.89,4.55-0.89c1.86,0,3.49,0.36,4.87,1.08c1.38,0.72,2.52,1.69,3.41,2.9
			c0.89,1.21,1.53,2.6,1.93,4.15c0.4,1.55,0.54,3.18,0.42,4.87h-15.79C263.56,210.89,264.05,212.29,264.95,213.17z M271.75,201.65
			c-0.72-0.79-1.81-1.18-3.28-1.18c-0.96,0-1.76,0.16-2.39,0.49c-0.64,0.33-1.14,0.73-1.52,1.21c-0.38,0.48-0.65,0.99-0.8,1.52
			c-0.16,0.53-0.25,1.01-0.28,1.44h9.78C272.97,203.6,272.47,202.44,271.75,201.65z"/>
		<path class="st1" d="M297.51,215.62c-0.71,1.19-1.63,2.04-2.77,2.56c-1.14,0.52-2.43,0.78-3.88,0.78c-1.64,0-3.07-0.32-4.32-0.95
			c-1.24-0.64-2.26-1.5-3.07-2.58c-0.81-1.09-1.41-2.34-1.82-3.75c-0.41-1.41-0.61-2.88-0.61-4.4c0-1.47,0.21-2.89,0.61-4.25
			c0.41-1.37,1.01-2.58,1.82-3.62c0.81-1.04,1.81-1.89,3.03-2.52c1.21-0.64,2.63-0.95,4.23-0.95c1.3,0,2.54,0.27,3.71,0.83
			c1.17,0.55,2.09,1.36,2.77,2.43h0.08v-11.01h6.01v30.23h-5.72v-2.8H297.51z M297.26,204.81c-0.17-0.83-0.46-1.57-0.87-2.2
			c-0.41-0.64-0.94-1.15-1.59-1.55c-0.65-0.39-1.47-0.59-2.46-0.59c-0.99,0-1.82,0.2-2.5,0.59c-0.68,0.4-1.22,0.92-1.63,1.57
			c-0.41,0.65-0.71,1.39-0.89,2.22c-0.18,0.83-0.27,1.7-0.27,2.6c0,0.85,0.1,1.69,0.3,2.54c0.2,0.85,0.51,1.6,0.95,2.27
			c0.44,0.66,0.99,1.2,1.65,1.61c0.66,0.41,1.46,0.61,2.39,0.61c0.99,0,1.81-0.2,2.47-0.59c0.66-0.4,1.19-0.92,1.59-1.59
			c0.39-0.66,0.68-1.42,0.85-2.26c0.17-0.85,0.26-1.72,0.26-2.63C297.51,206.51,297.43,205.64,297.26,204.81z"/>
		<path class="st1" d="M306.32,193.14v-4.95h6.01v4.95H306.32z M312.33,196.53v21.89h-6.01v-21.89H312.33z"/>
		<path class="st1" d="M328.25,196.53v4.02h-4.4v10.84c0,1.02,0.17,1.69,0.51,2.03c0.34,0.34,1.02,0.51,2.03,0.51
			c0.34,0,0.66-0.01,0.98-0.04c0.31-0.03,0.61-0.07,0.89-0.13v4.66c-0.51,0.08-1.07,0.14-1.69,0.17c-0.62,0.03-1.23,0.04-1.82,0.04
			c-0.93,0-1.81-0.07-2.65-0.19c-0.83-0.13-1.56-0.38-2.2-0.74c-0.64-0.37-1.14-0.89-1.5-1.57c-0.37-0.68-0.55-1.57-0.55-2.67
			v-12.91h-3.64v-4.02h3.64v-6.56h6.01v6.56H328.25z"/>
		<path class="st1" d="M354.33,218.42v-3.05h-0.13c-0.76,1.27-1.75,2.19-2.96,2.75c-1.21,0.56-2.46,0.85-3.73,0.85
			c-1.61,0-2.93-0.21-3.96-0.63c-1.03-0.43-1.84-1.03-2.43-1.8c-0.59-0.77-1.01-1.72-1.25-2.84c-0.24-1.12-0.36-2.35-0.36-3.71
			v-13.46h6.01v12.36c0,1.81,0.28,3.15,0.85,4.04c0.56,0.89,1.57,1.33,3.01,1.33c1.64,0,2.82-0.48,3.56-1.46
			c0.73-0.98,1.1-2.58,1.1-4.8v-11.48h6.01v21.89H354.33z"/>
		<path class="st1" d="M368.64,196.53v3.05h0.13c0.76-1.27,1.75-2.2,2.96-2.77c1.21-0.58,2.46-0.87,3.72-0.87
			c1.61,0,2.93,0.22,3.96,0.66c1.03,0.44,1.84,1.04,2.43,1.82c0.6,0.78,1.01,1.72,1.25,2.84c0.24,1.12,0.36,2.35,0.36,3.71v13.46
			h-6.01v-12.36c0-1.81-0.28-3.15-0.85-4.04s-1.57-1.33-3.01-1.33c-1.64,0-2.82,0.49-3.56,1.46c-0.73,0.98-1.1,2.58-1.1,4.81v11.47
			h-6.01v-21.89H368.64z"/>
		<path class="st1" d="M386.5,193.14v-4.95h6.01v4.95H386.5z M392.51,196.53v21.89h-6.01v-21.89H392.51z"/>
		<path class="st1" d="M395.69,202.73c0.53-1.42,1.3-2.64,2.29-3.64c0.99-1,2.17-1.78,3.56-2.33c1.38-0.55,2.93-0.83,4.66-0.83
			c1.72,0,3.28,0.27,4.68,0.83c1.4,0.55,2.59,1.33,3.58,2.33c0.99,1,1.75,2.22,2.29,3.64c0.53,1.43,0.8,3.01,0.8,4.76
			c0,1.75-0.27,3.33-0.8,4.74c-0.54,1.41-1.3,2.62-2.29,3.62c-0.99,1-2.18,1.77-3.58,2.31c-1.4,0.53-2.95,0.8-4.68,0.8
			c-1.72,0-3.28-0.27-4.66-0.8c-1.38-0.54-2.57-1.31-3.56-2.31s-1.75-2.21-2.29-3.62c-0.53-1.41-0.81-2.99-0.81-4.74
			C394.88,205.75,395.16,204.16,395.69,202.73z M401.15,210.06c0.17,0.83,0.46,1.58,0.87,2.24c0.41,0.66,0.95,1.19,1.63,1.59
			c0.68,0.39,1.52,0.59,2.54,0.59c1.01,0,1.87-0.2,2.56-0.59c0.69-0.4,1.24-0.92,1.65-1.59c0.41-0.66,0.7-1.41,0.87-2.24
			c0.17-0.83,0.25-1.69,0.25-2.56s-0.09-1.74-0.25-2.58c-0.17-0.85-0.46-1.6-0.87-2.24c-0.41-0.65-0.96-1.18-1.65-1.59
			c-0.69-0.41-1.55-0.61-2.56-0.61c-1.01,0-1.86,0.21-2.54,0.61c-0.68,0.41-1.22,0.94-1.63,1.59c-0.41,0.65-0.7,1.39-0.87,2.24
			c-0.17,0.85-0.25,1.71-0.25,2.58S400.98,209.23,401.15,210.06z"/>
		<path class="st1" d="M425.45,196.53v3.05h0.13c0.76-1.27,1.75-2.2,2.96-2.77c1.21-0.58,2.46-0.87,3.72-0.87
			c1.61,0,2.93,0.22,3.96,0.66c1.03,0.44,1.84,1.04,2.43,1.82c0.6,0.78,1.01,1.72,1.25,2.84c0.24,1.12,0.36,2.35,0.36,3.71v13.46
			h-6.01v-12.36c0-1.81-0.28-3.15-0.85-4.04s-1.57-1.33-3.01-1.33c-1.64,0-2.82,0.49-3.56,1.46c-0.73,0.98-1.1,2.58-1.1,4.81v11.47
			h-6.01v-21.89H425.45z"/>
	</g>
</g>
</svg>
