<svg xmlns="http://www.w3.org/2000/svg" width='100%' height='100%'  viewBox="0 0 396.85 297.64"><defs><style>.cls-1{fill:#bbbb14;}.cls-2,.cls-4{fill:#7d55c7;}.cls-3{fill:url(#linear-gradient);}.cls-4{opacity:0.4;}.cls-5{fill:#fff;}</style><linearGradient id="linear-gradient" x1="259.28" y1="165.44" x2="259.28" y2="120" gradientUnits="userSpaceOnUse"><stop offset="0" stop-color="#2cccd3"/><stop offset="1" stop-color="#7d55c7"/></linearGradient></defs><path class="cls-1" d="M68.63,164.87H53.78V134.12H38.69v30.75H23.77V134.12H15.08v-8.7l8.69-2.7v-4c0-11.15,5-16.65,17.79-16.65a25.87,25.87,0,0,1,7.38.91V114.6a18.43,18.43,0,0,0-5.33-1c-3.36,0-4.92,1.47-4.92,5v4.1H68.63Zm0-49.37h-15V103h15Z"/><path class="cls-1" d="M107.69,122.64v13.53a10,10,0,0,0-5.57-1.39c-3.45,0-6.32,2.05-8.2,8.69v21.4H79V133.13a27,27,0,0,0-1.39-9l11.89-2a15.68,15.68,0,0,1,2.87,9.35h.08c2-6.48,5.33-9.35,10.74-9.35A15.32,15.32,0,0,1,107.69,122.64Z"/><path class="cls-1" d="M151.58,131.58a6.45,6.45,0,0,1-1,3.85H137.89a5.73,5.73,0,0,0,.16-1.23c0-2.13-1.47-3.44-5.33-3.44-3.44,0-5.49,1.22-5.49,3.36,0,1.56.9,2.46,3.11,3.11l10.09,2.05c8.28,1.56,12.38,4.68,12.38,11.48,0,9.35-7.13,15-21.24,15-10.57,0-18.45-2.54-18.45-11.15a5.64,5.64,0,0,1,.82-3.28l12.71.08a4.78,4.78,0,0,0-.16,1.31c0,2.3,1.88,3.61,5.41,3.61,3.36,0,5.25-1.39,5.25-3.77,0-1.89-1.07-2.62-4.1-3.36l-9-1.81c-7.63-1.31-10.74-5.66-10.74-11.48,0-8.77,7.3-13.94,20.5-13.94C143.71,122,151.58,124.69,151.58,131.58Z"/><path class="cls-1" d="M179.32,148.8c0,3.2,1.56,4.67,4.68,4.67a12.57,12.57,0,0,0,4.43-.82V163.8c-1.64,1.07-5.33,2-9.93,2-9.43,0-14.1-6-14.1-13.77V134.12h-7.79v-8.94l7.95-2.21,4.51-12.72h10.25v12.47h11v11.4h-11Z"/><path class="cls-2" d="M223.89,149.62c0,2.87,1.23,3.85,3.52,3.85a11.16,11.16,0,0,0,3.2-.49v11.24a14.46,14.46,0,0,1-7.3,1.55c-9.84,0-14.35-5.08-14.35-13.2V103h14.93Z"/><path class="cls-2" d="M330.7,155.6v8.12c-1.72,1.48-5.33,2-8.12,2-5.58,0-8.44-2.46-9.59-6l-.09-.08c-2.78,4.1-8.36,6.15-13.12,6.15-7.54,0-13.44-3.85-13.44-12.22,0-7.3,3.77-10.66,12.54-12.05l13-2.22v-2.37c0-4.27-2.13-5.91-5.91-5.91-3.52,0-5.08,1.4-5.08,3.53a4.64,4.64,0,0,0,.41,1.88H288.88a8.23,8.23,0,0,1-.82-3.68c0-6.81,5.9-10.75,18.45-10.75,13.12,0,20.17,4.76,20.17,16.16v15c0,2.13.74,2.79,2.22,2.79A4.34,4.34,0,0,0,330.7,155.6Zm-18.86-3.44v-5.41L305,148.14c-3.12.66-4.27,1.72-4.27,3.94,0,2.38,1.48,3.93,4.1,3.93S309.54,155,311.84,152.16Z"/><path class="cls-2" d="M378.86,135.1v29.77H363.94V138.54c0-3-1.23-4.34-4.18-4.34a7.8,7.8,0,0,0-6.81,4.1v26.57H338.11v-24.6c0-8.2-.41-12.79-1.64-16.73l13.61-1.48a21,21,0,0,1,2.21,7.55c3-5.5,7.06-7.55,13.7-7.55C375.09,122.06,378.86,126.16,378.86,135.1Z"/><path class="cls-3" d="M282.33,142.72c-.52,30.3-45.58,30.29-46.1,0C236.75,112.43,281.82,112.43,282.33,142.72Z"/><path class="cls-4" d="M281.93,138.56c5.18,27.13-34.52,38-44.11,12.52,14,1.72,19.31-15.88,34-12.43C275.34,139,278.62,139.52,281.93,138.56Z"/><path class="cls-5" d="M260,152.31v3.51h-1.81v-3.45c-4.28-.2-6.14-2.17-6.14-4.75a3.39,3.39,0,0,1,.33-1.64h4.45a1.22,1.22,0,0,0-.14.66c0,1.11.83,1.84,2.39,1.84,1.28,0,2.25-.61,2.25-1.64,0-.75-.39-1.17-1.67-1.72l-3.61-1.39c-2.39-.87-3.92-2.15-3.92-4.92,0-3,2.31-5,6.59-5.31v-3.87h1.81v3.87c3.5.14,5.41,1.44,5.41,3.64a4.28,4.28,0,0,1-.5,2h-4.25a1.76,1.76,0,0,0,.2-.81c0-.83-.64-1.31-1.87-1.31s-2.13.51-2.13,1.53.63,1.31,1.52,1.75l3.76,1.45c2.38.94,3.8,2.2,3.8,4.72C266.49,150,264.1,152,260,152.31Z"/></svg>